<?xml version="1.0" encoding="UTF-8"?>
<svg width="397px" height="375px" viewBox="0 0 397 375" version="1.1" xmlns="http://www.w3.org/2000/svg">
  <path d="M58.915,327.43 C62.4616667,327.43 65.5533333,328.176667 68.19,329.67 C70.8266667,331.163333 72.145,333.356667 72.145,336.25 C72.145,337.93 71.5733333,339.318333 70.43,340.415 C69.2866667,341.511667 67.805,342.06 65.985,342.06 C64.9116667,342.013333 64.095,341.745 63.535,341.255 C62.975,340.765 62.695,340.31 62.695,339.89 C62.695,339.843333 63.01,339.68 63.64,339.4 C64.27,339.12 64.83,338.7 65.32,338.14 C65.81,337.58 66.055,336.81 66.055,335.83 C66.055,334.103333 65.39,332.75 64.06,331.77 C62.73,330.79 61.0383333,330.3 58.985,330.3 C56.1383333,330.3 53.98,330.965 52.51,332.295 C51.04,333.625 50.305,335.27 50.305,337.23 C50.305,338.863333 50.7483333,340.228333 51.635,341.325 C52.5216667,342.421667 53.945,343.506667 55.905,344.58 C57.4916667,345.42 59.2183333,346.26 61.085,347.1 C64.0716667,348.453333 66.44,349.69 68.19,350.81 C69.94,351.93 71.41,353.4 72.6,355.22 C73.79,357.04 74.385,359.303333 74.385,362.01 C74.385,364.343333 73.65,366.455 72.18,368.345 C70.71,370.235 68.7266667,371.716667 66.23,372.79 C63.7333333,373.863333 60.9916667,374.4 58.005,374.4 C53.105,374.4 49.36,373.548333 46.77,371.845 C44.18,370.141667 42.885,367.633333 42.885,364.32 C42.885,362.64 43.4566667,361.251667 44.6,360.155 C45.7433333,359.058333 47.225,358.51 49.045,358.51 C50.1183333,358.556667 50.935,358.825 51.495,359.315 C52.055,359.805 52.335,360.26 52.335,360.68 C52.335,360.726667 52.1016667,360.89 51.635,361.17 C51.1683333,361.45 50.7483333,361.87 50.375,362.43 C50.0016667,362.99 49.815,363.76 49.815,364.74 C49.815,366.933333 50.48,368.625 51.81,369.815 C53.14,371.005 55.205,371.6 58.005,371.6 C59.9183333,371.6 61.5983333,371.226667 63.045,370.48 C64.4916667,369.733333 65.6,368.741667 66.37,367.505 C67.14,366.268333 67.525,364.973333 67.525,363.62 C67.525,361.94 67.0466667,360.493333 66.09,359.28 C65.1333333,358.066667 63.955,357.051667 62.555,356.235 C61.155,355.418333 59.2416667,354.473333 56.815,353.4 C54.015,352.14 51.7516667,350.996667 50.025,349.97 C48.2983333,348.943333 46.8283333,347.578333 45.615,345.875 C44.4016667,344.171667 43.795,342.06 43.795,339.54 C43.795,335.48 45.1833333,332.446667 47.96,330.44 C50.7366667,328.433333 54.3883333,327.43 58.915,327.43 Z M366.04,328.41 C368.373333,328.41 370.228333,328.585 371.605,328.935 C372.981667,329.285 374.183333,329.985 375.21,331.035 C376.236667,332.085 377.193333,333.683333 378.08,335.83 L378.08,335.83 L389.84,364.81 L389.989643,365.183214 C390.636548,366.771071 391.263333,367.976667 391.87,368.8 C392.523333,369.686667 393.503333,370.153333 394.81,370.2 L394.81,370.2 L395.23,370.2 L395.398437,370.203828 C395.776146,370.221693 396.046667,370.302083 396.21,370.445 C396.396667,370.608333 396.513333,371.016667 396.56,371.67 C396.56,372.09 396.455,372.451667 396.245,372.755 C396.035,373.058333 395.72,373.21 395.3,373.21 C392.313333,373.07 389.746667,373 387.6,373 C384.8,373 381.906667,373.07 378.92,373.21 C378.5,373.21 378.185,373.058333 377.975,372.755 C377.765,372.451667 377.66,372.09 377.66,371.67 C377.706667,371.016667 377.823333,370.608333 378.01,370.445 C378.196667,370.281667 378.523333,370.2 378.99,370.2 C380.576667,370.2 381.696667,370.048333 382.35,369.745 C383.003333,369.441667 383.33,368.893333 383.33,368.1 C383.33,367.493333 383.05,366.396667 382.49,364.81 L382.49,364.81 L380.11,359 L362.82,359 L362.692435,359.316488 C361.604762,362.016113 360.982284,363.590617 360.825,364.04 C360.661667,364.506667 360.58,364.763333 360.58,364.81 C360.02,366.583333 359.74,367.726667 359.74,368.24 C359.74,369.033333 360.09,369.558333 360.79,369.815 C361.49,370.071667 362.82,370.2 364.78,370.2 L364.78,370.2 L365.2,370.2 L365.368437,370.203828 C365.746146,370.221693 366.016667,370.302083 366.18,370.445 C366.366667,370.608333 366.483333,371.016667 366.53,371.67 C366.53,372.09 366.425,372.451667 366.215,372.755 C366.005,373.058333 365.69,373.21 365.27,373.21 C362.283333,373.07 359.74,373 357.64,373 C356.146667,373 353.883333,373.07 350.85,373.21 C350.43,373.21 350.115,373.058333 349.905,372.755 C349.695,372.451667 349.59,372.09 349.59,371.67 C349.636667,370.97 349.776667,370.55 350.01,370.41 C350.243333,370.27 350.523333,370.2 350.85,370.2 L350.85,370.2 L351.48,370.2 L351.755022,370.195178 C353.01523,370.15017 353.950222,369.790111 354.56,369.115 C355.213333,368.391667 355.738333,367.575 356.135,366.665 C356.531667,365.755 356.8,365.136667 356.94,364.81 L356.94,364.81 L369.19,335.83 L369.278148,335.601852 C369.499383,335.007284 369.61,334.523333 369.61,334.15 C369.61,333.31 369.283333,332.703333 368.63,332.33 C367.976667,331.956667 367.066667,331.653333 365.9,331.42 C365.106667,331.28 364.616667,331.14 364.43,331 C364.243333,330.86 364.15,330.463333 364.15,329.81 C364.15,329.25 364.301667,328.876667 364.605,328.69 C364.908333,328.503333 365.386667,328.41 366.04,328.41 Z M305.245,328.62 C308.325,328.76 311.101667,328.83 313.575,328.83 L313.575,328.83 L324.495,328.83 L325.077032,328.835095 C329.328286,328.909814 333.205942,329.806449 336.71,331.525 C340.373333,333.321667 343.266667,335.9 345.39,339.26 C347.513333,342.62 348.575,346.586667 348.575,351.16 C348.575,355.92 347.373333,359.945 344.97,363.235 C342.566667,366.525 339.44,368.975 335.59,370.585 C331.74,372.195 327.621667,373 323.235,373 L323.235,373 L313.575,373 L312.892934,373.001736 C310.594311,373.013306 308.045,373.082727 305.245,373.21 C304.871667,373.21 304.58,373.058333 304.37,372.755 C304.16,372.451667 304.055,372.09 304.055,371.67 C304.101667,370.97 304.241667,370.55 304.475,370.41 C304.708333,370.27 305.151667,370.2 305.805,370.2 C307.158333,370.2 308.161667,369.955 308.815,369.465 C309.468333,368.975 309.876667,368.368333 310.04,367.645 C310.203333,366.921667 310.308333,365.976667 310.355,364.81 L310.355,364.81 L310.355,337.02 L310.337284,336.639321 C310.28428,335.64607 310.185185,334.827963 310.04,334.185 C309.876667,333.461667 309.468333,332.855 308.815,332.365 C308.161667,331.875 307.158333,331.63 305.805,331.63 L305.805,331.63 L305.385,331.63 L305.216563,331.626172 C304.838854,331.608307 304.568333,331.527917 304.405,331.385 C304.218333,331.221667 304.101667,330.813333 304.055,330.16 C304.055,329.74 304.16,329.378333 304.37,329.075 C304.58,328.771667 304.871667,328.62 305.245,328.62 Z M1.2,328.62 C4.28,328.76 7.05666667,328.83 9.53,328.83 L9.53,328.83 L31.51,328.83 L31.68745,328.8342 C32.7824833,328.8874 33.33,329.446 33.33,330.51 L33.33,330.51 L33.54,340.31 L33.5322222,340.446975 C33.4907407,340.804177 33.2833333,341.096852 32.91,341.325 C32.49,341.581667 32.07,341.71 31.65,341.71 C31.09,341.71 30.6,341.605 30.18,341.395 C29.76,341.185 29.5266667,340.87 29.48,340.45 C29.1066667,338.163333 28.6983333,336.425 28.255,335.235 C27.8116667,334.045 27.1583333,333.158333 26.295,332.575 C25.4316667,331.991667 24.2066667,331.676667 22.62,331.63 L22.62,331.63 L13.24,331.63 L13.24,349.41 L25.91,349.41 L26.0457143,349.437857 C26.3085714,349.509286 26.52,349.675 26.68,349.935 C26.8666667,350.238333 26.96,350.6 26.96,351.02 C26.96,351.393333 26.8666667,351.72 26.68,352 C26.4933333,352.28 26.2366667,352.42 25.91,352.42 L25.91,352.42 L13.24,352.42 L13.24,365.65 L13.2719753,365.969321 C13.3595473,366.801255 13.4655556,367.476481 13.59,367.995 C13.73,368.578333 14.15,369.103333 14.85,369.57 C15.55,370.036667 16.6466667,370.246667 18.14,370.2 L18.14,370.2 L24.58,370.2 L24.9239286,370.186607 C26.3879762,370.113869 27.51,369.85 28.29,369.395 C29.13,368.905 29.795,368.146667 30.285,367.12 C30.775,366.093333 31.37,364.413333 32.07,362.08 C32.3966667,361.24 33.19,360.913333 34.45,361.1 C34.9166667,361.193333 35.325,361.38 35.675,361.66 C36.025,361.94 36.1766667,362.29 36.13,362.71 L36.13,362.71 L34.73,371.53 L34.6807407,371.724444 C34.5424691,372.222222 34.3488889,372.554074 34.1,372.72 C33.82,372.906667 33.3533333,373 32.7,373 L32.7,373 L9.6,373 L8.8356,373.0021 C6.5172,373.0147 3.972,373.084 1.2,373.21 C0.826666667,373.21 0.535,373.058333 0.325,372.755 C0.115,372.451667 0.01,372.09 0.01,371.67 C0.0566666667,370.97 0.196666667,370.55 0.43,370.41 C0.663333333,370.27 1.10666667,370.2 1.76,370.2 C3.11333333,370.2 4.11666667,369.955 4.77,369.465 C5.42333333,368.975 5.83166667,368.368333 5.995,367.645 C6.15833333,366.921667 6.26333333,365.976667 6.31,364.81 L6.31,364.81 L6.31,337.02 L6.29228395,336.639321 C6.23927984,335.64607 6.14018519,334.827963 5.995,334.185 C5.83166667,333.461667 5.42333333,332.855 4.77,332.365 C4.11666667,331.875 3.11333333,331.63 1.76,331.63 L1.76,331.63 L1.34,331.63 L1.1715625,331.626172 C0.793854167,331.608307 0.523333333,331.527917 0.36,331.385 C0.173333333,331.221667 0.0566666667,330.813333 0.01,330.16 C0.01,329.74 0.115,329.378333 0.325,329.075 C0.535,328.771667 0.826666667,328.62 1.2,328.62 Z M272.87,328.41 C275.203333,328.41 277.058333,328.585 278.435,328.935 C279.811667,329.285 281.013333,329.985 282.04,331.035 C283.066667,332.085 284.023333,333.683333 284.91,335.83 L284.91,335.83 L296.67,364.81 L296.819643,365.183214 C297.466548,366.771071 298.093333,367.976667 298.7,368.8 C299.353333,369.686667 300.333333,370.153333 301.64,370.2 L301.64,370.2 L302.06,370.2 L302.228437,370.203828 C302.606146,370.221693 302.876667,370.302083 303.04,370.445 C303.226667,370.608333 303.343333,371.016667 303.39,371.67 C303.39,372.09 303.285,372.451667 303.075,372.755 C302.865,373.058333 302.55,373.21 302.13,373.21 C299.143333,373.07 296.576667,373 294.43,373 C291.63,373 288.736667,373.07 285.75,373.21 C285.33,373.21 285.015,373.058333 284.805,372.755 C284.595,372.451667 284.49,372.09 284.49,371.67 C284.536667,371.016667 284.653333,370.608333 284.84,370.445 C285.026667,370.281667 285.353333,370.2 285.82,370.2 C287.406667,370.2 288.526667,370.048333 289.18,369.745 C289.833333,369.441667 290.16,368.893333 290.16,368.1 C290.16,367.493333 289.88,366.396667 289.32,364.81 L289.32,364.81 L286.94,359 L269.65,359 L269.522435,359.316488 C268.434762,362.016113 267.812284,363.590617 267.655,364.04 C267.491667,364.506667 267.41,364.763333 267.41,364.81 C266.85,366.583333 266.57,367.726667 266.57,368.24 C266.57,369.033333 266.92,369.558333 267.62,369.815 C268.32,370.071667 269.65,370.2 271.61,370.2 L271.61,370.2 L272.03,370.2 L272.198437,370.203828 C272.576146,370.221693 272.846667,370.302083 273.01,370.445 C273.196667,370.608333 273.313333,371.016667 273.36,371.67 C273.36,372.09 273.255,372.451667 273.045,372.755 C272.835,373.058333 272.52,373.21 272.1,373.21 C269.113333,373.07 266.57,373 264.47,373 C262.976667,373 260.713333,373.07 257.68,373.21 C257.26,373.21 256.945,373.058333 256.735,372.755 C256.525,372.451667 256.42,372.09 256.42,371.67 C256.466667,370.97 256.606667,370.55 256.84,370.41 C257.073333,370.27 257.353333,370.2 257.68,370.2 L257.68,370.2 L258.31,370.2 L258.585022,370.195178 C259.84523,370.15017 260.780222,369.790111 261.39,369.115 C262.043333,368.391667 262.568333,367.575 262.965,366.665 C263.361667,365.755 263.63,365.136667 263.77,364.81 L263.77,364.81 L276.02,335.83 L276.108148,335.601852 C276.329383,335.007284 276.44,334.523333 276.44,334.15 C276.44,333.31 276.113333,332.703333 275.46,332.33 C274.806667,331.956667 273.896667,331.653333 272.73,331.42 C271.936667,331.28 271.446667,331.14 271.26,331 C271.073333,330.86 270.98,330.463333 270.98,329.81 C270.98,329.25 271.131667,328.876667 271.435,328.69 C271.738333,328.503333 272.216667,328.41 272.87,328.41 Z M209.625,328.41 C212.518333,328.41 214.805,328.608333 216.485,329.005 C218.165,329.401667 219.646667,330.113333 220.93,331.14 C222.213333,332.166667 223.625,333.73 225.165,335.83 L225.165,335.83 L244.345,361.03 L244.555,361.03 L244.415,337.02 L244.401116,336.683595 C244.350978,335.58635 244.262273,334.730152 244.135,334.115 C243.995,333.438333 243.61,332.855 242.98,332.365 C242.35,331.875 241.358333,331.63 240.005,331.63 L240.005,331.63 L239.585,331.63 L239.416016,331.626172 C239.035755,331.608307 238.75375,331.527917 238.57,331.385 C238.36,331.221667 238.231667,330.813333 238.185,330.16 C238.185,329.74 238.301667,329.378333 238.535,329.075 C238.768333,328.771667 239.071667,328.62 239.445,328.62 C242.265741,328.752222 244.420473,328.822006 245.909198,328.829352 L245.909198,328.829352 L246.311787,328.829612 C247.233227,328.824958 248.887632,328.778421 251.275,328.69 L251.275,328.69 L252.745,328.62 L252.897578,328.627109 C253.242109,328.660286 253.50625,328.809583 253.69,329.075 C253.9,329.378333 254.005,329.74 254.005,330.16 C253.958333,330.86 253.818333,331.28 253.585,331.42 C253.351667,331.56 252.908333,331.63 252.255,331.63 C250.901667,331.63 249.91,331.875 249.28,332.365 C248.65,332.855 248.265,333.438333 248.125,334.115 C247.985,334.791667 247.891667,335.76 247.845,337.02 L247.845,337.02 L247.705,372.3 L247.689961,372.410195 C247.58332,372.943398 247.005,373.21 245.955,373.21 C245.068333,373.21 244.391667,372.906667 243.925,372.3 L243.925,372.3 L217.535,337.02 L217.325,337.02 L217.465,364.81 L217.478884,365.146405 C217.529022,366.24365 217.617727,367.099848 217.745,367.715 C217.885,368.391667 218.27,368.975 218.9,369.465 C219.53,369.955 220.521667,370.2 221.875,370.2 L221.875,370.2 L222.295,370.2 L222.463984,370.203828 C222.844245,370.221693 223.12625,370.302083 223.31,370.445 C223.52,370.608333 223.648333,371.016667 223.695,371.67 C223.695,372.09 223.59,372.451667 223.38,372.755 C223.17,373.058333 222.855,373.21 222.435,373.21 C219.448333,373.07 217.185,373 215.645,373 C214.711667,373 213.078333,373.046667 210.745,373.14 L210.745,373.14 L209.135,373.21 L208.982422,373.202891 C208.637891,373.169714 208.37375,373.020417 208.19,372.755 C207.98,372.451667 207.875,372.09 207.875,371.67 C207.921667,370.97 208.061667,370.55 208.295,370.41 C208.528333,370.27 208.971667,370.2 209.625,370.2 C210.978333,370.2 211.97,369.955 212.6,369.465 C213.23,368.975 213.615,368.391667 213.755,367.715 C213.895,367.038333 213.988333,366.07 214.035,364.81 L214.035,364.81 L214.175,337.02 L214.17184,336.677049 C214.148669,335.445405 213.998056,334.498056 213.72,333.835 C213.416667,333.111667 212.938333,332.586667 212.285,332.26 C211.631667,331.933333 210.698333,331.653333 209.485,331.42 C208.691667,331.28 208.201667,331.14 208.015,331 C207.828333,330.86 207.735,330.463333 207.735,329.81 C207.735,329.25 207.886667,328.876667 208.19,328.69 C208.493333,328.503333 208.971667,328.41 209.625,328.41 Z M176.62,328.41 C178.953333,328.41 180.808333,328.585 182.185,328.935 C183.561667,329.285 184.763333,329.985 185.79,331.035 C186.816667,332.085 187.773333,333.683333 188.66,335.83 L188.66,335.83 L200.42,364.81 L200.569643,365.183214 C201.216548,366.771071 201.843333,367.976667 202.45,368.8 C203.103333,369.686667 204.083333,370.153333 205.39,370.2 L205.39,370.2 L205.81,370.2 L205.978437,370.203828 C206.356146,370.221693 206.626667,370.302083 206.79,370.445 C206.976667,370.608333 207.093333,371.016667 207.14,371.67 C207.14,372.09 207.035,372.451667 206.825,372.755 C206.615,373.058333 206.3,373.21 205.88,373.21 C202.893333,373.07 200.326667,373 198.18,373 C195.38,373 192.486667,373.07 189.5,373.21 C189.08,373.21 188.765,373.058333 188.555,372.755 C188.345,372.451667 188.24,372.09 188.24,371.67 C188.286667,371.016667 188.403333,370.608333 188.59,370.445 C188.776667,370.281667 189.103333,370.2 189.57,370.2 C191.156667,370.2 192.276667,370.048333 192.93,369.745 C193.583333,369.441667 193.91,368.893333 193.91,368.1 C193.91,367.493333 193.63,366.396667 193.07,364.81 L193.07,364.81 L190.69,359 L173.4,359 L173.272435,359.316488 C172.184762,362.016113 171.562284,363.590617 171.405,364.04 C171.241667,364.506667 171.16,364.763333 171.16,364.81 C170.6,366.583333 170.32,367.726667 170.32,368.24 C170.32,369.033333 170.67,369.558333 171.37,369.815 C172.07,370.071667 173.4,370.2 175.36,370.2 L175.36,370.2 L175.78,370.2 L175.948437,370.203828 C176.326146,370.221693 176.596667,370.302083 176.76,370.445 C176.946667,370.608333 177.063333,371.016667 177.11,371.67 C177.11,372.09 177.005,372.451667 176.795,372.755 C176.585,373.058333 176.27,373.21 175.85,373.21 C172.863333,373.07 170.32,373 168.22,373 C166.726667,373 164.463333,373.07 161.43,373.21 C161.01,373.21 160.695,373.058333 160.485,372.755 C160.275,372.451667 160.17,372.09 160.17,371.67 C160.216667,370.97 160.356667,370.55 160.59,370.41 C160.823333,370.27 161.103333,370.2 161.43,370.2 L161.43,370.2 L162.06,370.2 L162.335022,370.195178 C163.59523,370.15017 164.530222,369.790111 165.14,369.115 C165.793333,368.391667 166.318333,367.575 166.715,366.665 C167.111667,365.755 167.38,365.136667 167.52,364.81 L167.52,364.81 L179.77,335.83 L179.858148,335.601852 C180.079383,335.007284 180.19,334.523333 180.19,334.15 C180.19,333.31 179.863333,332.703333 179.21,332.33 C178.556667,331.956667 177.646667,331.653333 176.48,331.42 C175.686667,331.28 175.196667,331.14 175.01,331 C174.823333,330.86 174.73,330.463333 174.73,329.81 C174.73,329.25 174.881667,328.876667 175.185,328.69 C175.488333,328.503333 175.966667,328.41 176.62,328.41 Z M81.7,328.62 C84.7333333,328.76 87.5333333,328.83 90.1,328.83 L90.1,328.83 L100.6,328.83 L101.208038,328.8363 C105.052846,328.9161 108.781833,329.754 112.395,331.35 C116.198333,333.03 118.1,336.39 118.1,341.43 C118.1,344.23 117.26,346.726667 115.58,348.92 C113.9,351.113333 111.718333,352.816667 109.035,354.03 C106.351667,355.243333 103.563333,355.85 100.67,355.85 C98.01,355.85 95.6766667,355.476667 93.67,354.73 L93.67,354.73 L93.67,364.81 L93.687716,365.190679 C93.7407202,366.18393 93.8398148,367.002037 93.985,367.645 C94.1483333,368.368333 94.5566667,368.975 95.21,369.465 C95.8633333,369.955 96.8666667,370.2 98.22,370.2 L98.22,370.2 L98.64,370.2 L98.8089844,370.203828 C99.1892448,370.221693 99.47125,370.302083 99.655,370.445 C99.865,370.608333 99.9933333,371.016667 100.04,371.67 C100.04,372.09 99.935,372.451667 99.725,372.755 C99.515,373.058333 99.2,373.21 98.78,373.21 C95.7933333,373.07 92.8766667,373 90.03,373 C87.51,373 84.7333333,373.07 81.7,373.21 C81.3266667,373.21 81.0233333,373.058333 80.79,372.755 C80.5566667,372.451667 80.44,372.09 80.44,371.67 C80.4866667,370.97 80.6383333,370.55 80.895,370.41 C81.1516667,370.27 81.6066667,370.2 82.26,370.2 C83.6133333,370.2 84.6166667,369.955 85.27,369.465 C85.9233333,368.975 86.3316667,368.368333 86.495,367.645 C86.6583333,366.921667 86.7633333,365.976667 86.81,364.81 L86.81,364.81 L86.81,337.02 L86.792284,336.639321 C86.7392798,335.64607 86.6401852,334.827963 86.495,334.185 C86.3316667,333.461667 85.9233333,332.855 85.27,332.365 C84.6166667,331.875 83.6133333,331.63 82.26,331.63 L82.26,331.63 L81.84,331.63 L81.6710156,331.626172 C81.2907552,331.608307 81.00875,331.527917 80.825,331.385 C80.615,331.221667 80.4866667,330.813333 80.44,330.16 C80.44,329.74 80.5566667,329.378333 80.79,329.075 C81.0233333,328.771667 81.3266667,328.62 81.7,328.62 Z M141.445,328.62 C141.865,328.62 142.18,328.771667 142.39,329.075 C142.6,329.378333 142.705,329.74 142.705,330.16 C142.658333,330.86 142.506667,331.28 142.25,331.42 C141.993333,331.56 141.561667,331.63 140.955,331.63 C139.601667,331.63 138.598333,331.875 137.945,332.365 C137.291667,332.855 136.883333,333.461667 136.72,334.185 C136.556667,334.908333 136.451667,335.853333 136.405,337.02 L136.405,337.02 L136.405,365.86 L136.436975,366.178457 C136.524547,367.005782 136.630556,367.657963 136.755,368.135 C136.895,368.671667 137.315,369.161667 138.015,369.605 C138.715,370.048333 139.811667,370.246667 141.305,370.2 L141.305,370.2 L147.605,370.2 L147.948929,370.186607 C149.412976,370.113869 150.535,369.85 151.315,369.395 C152.155,368.905 152.82,368.146667 153.31,367.12 C153.8,366.093333 154.395,364.413333 155.095,362.08 C155.421667,361.24 156.215,360.913333 157.475,361.1 C157.895,361.193333 158.291667,361.38 158.665,361.66 C159.038333,361.94 159.201667,362.29 159.155,362.71 L159.155,362.71 L157.755,371.53 L157.705741,371.724444 C157.567469,372.222222 157.373889,372.554074 157.125,372.72 C156.845,372.906667 156.378333,373 155.725,373 L155.725,373 L132.765,373 L132.0006,373.0021 C129.6822,373.0147 127.137,373.084 124.365,373.21 C123.991667,373.21 123.7,373.058333 123.49,372.755 C123.28,372.451667 123.175,372.09 123.175,371.67 C123.221667,370.97 123.361667,370.55 123.595,370.41 C123.828333,370.27 124.271667,370.2 124.925,370.2 C126.278333,370.2 127.281667,369.955 127.935,369.465 C128.588333,368.975 128.996667,368.368333 129.16,367.645 C129.323333,366.921667 129.428333,365.976667 129.475,364.81 L129.475,364.81 L129.475,337.02 L129.457284,336.639321 C129.40428,335.64607 129.305185,334.827963 129.16,334.185 C128.996667,333.461667 128.588333,332.855 127.935,332.365 C127.281667,331.875 126.278333,331.63 124.925,331.63 L124.925,331.63 L124.505,331.63 L124.336562,331.626172 C123.958854,331.608307 123.688333,331.527917 123.525,331.385 C123.338333,331.221667 123.221667,330.813333 123.175,330.16 C123.175,329.74 123.28,329.378333 123.49,329.075 C123.7,328.771667 123.991667,328.62 124.365,328.62 C127.445,328.76 130.221667,328.83 132.695,328.83 C135.495,328.83 138.411667,328.76 141.445,328.62 Z M322.745,331.35 L317.285,331.42 L317.285,365.65 L317.289557,365.932618 C317.344238,367.59982 317.891053,368.753947 318.93,369.395 C320.026667,370.071667 321.811667,370.41 324.285,370.41 C329.745,370.41 333.746667,368.718333 336.29,365.335 C338.833333,361.951667 340.105,357.226667 340.105,351.16 C340.105,347.333333 339.416667,343.915 338.04,340.905 C336.663333,337.895 334.668333,335.55 332.055,333.87 C329.441667,332.19 326.338333,331.35 322.745,331.35 L322.745,331.35 Z M371.78,338 L371.57,338 L364.15,355.99 L378.85,355.99 L371.78,338 Z M278.61,338 L278.4,338 L270.98,355.99 L285.68,355.99 L278.61,338 Z M182.36,338 L182.15,338 L174.73,355.99 L189.43,355.99 L182.36,338 Z M98.08,331.42 C96.8666667,331.42 95.9566667,331.548333 95.35,331.805 C94.7433333,332.061667 94.3116667,332.563333 94.055,333.31 C93.7983333,334.056667 93.67,335.223333 93.67,336.81 L93.67,336.81 L93.67,351.93 L93.8862891,352.023242 C94.9991797,352.474414 96.58375,352.7 98.64,352.7 C100.32,352.7 102.058333,352.361667 103.855,351.685 C105.651667,351.008333 107.18,349.841667 108.44,348.185 C109.7,346.528333 110.33,344.346667 110.33,341.64 C110.33,337.533333 109.023333,334.803333 106.41,333.45 C103.796667,332.096667 101.02,331.42 98.08,331.42 Z M339.5,80 L212,299.5 L162,299.5 L289.5,80 L339.5,80 Z M278.5,80 L151,299.5 L101,299.5 L228.5,80 L278.5,80 Z M249.5,0 L122,219.5 L72,219.5 L199.5,0 L249.5,0 Z M188.5,0 L61,219.5 L11,219.5 L138.5,0 L188.5,0 Z M346.999934,86 L383.015404,148.003104 L333.014063,148.000794 L322,129.039329 L346.999934,86 Z M256.999934,6 L293.015404,68.0031037 L243.014063,68.0007937 L232,49.0393291 L256.999934,6 Z" fill="#FFFFFF" fill-opacity="0.5"></path>
</svg>
